# xmcd CD database file
#
# Track frame offsets:
#	150
#	26292
#	46312
#	57860
#	69450
#	87000
#	109587
#	138945
#	165380
#	189862
#	237230
#
# Disc length: 3232 seconds
#
# Revision: 2
# Processed by: cddbd v1.5PL3 Copyright (c) Steve Scherf et al.
# Submitted via: CDex 1.51
#
DISCID=7d0c9e0b
DTITLE=ACCEPT - Staying A Life [CD2]
DYEAR=1990
DGENRE=Metal
TTITLE0=Head Over Heels (LIVE)
TTITLE1=Guitar Solo Wolf (LIVE)
TTITLE2=Restless And Wild (LIVE)
TTITLE3=Son Of A Bitch (LIVE)
TTITLE4=London Leatherboys (LIVE)
TTITLE5=Love Child (LIVE)
TTITLE6=Flash Rockin' Man (LIVE)
TTITLE7=Dogs On Leads (LIVE)
TTITLE8=Fast As A Shark (LIVE)
TTITLE9=Balls To The Wall (LIVE)
TTITLE10=Outro (Bound To Fail) (LIVE)
EXTD=YEAR: 1990
EXTT0=
EXTT1=
EXTT2=
EXTT3=
EXTT4=
EXTT5=
EXTT6=
EXTT7=
EXTT8=
EXTT9=
EXTT10=
PLAYORDER=
